<svg class="icons" width="0" height="0" xmlns="http://www.w3.org/2000/svg">
	<defs>
		<g id="actTriangle"><path d="M6 12L0 24h24l-6-12-6-12-6 12zm10.7 1l4.6 9.2a283.4 283.4 0 01-18.6 0 889.3 889.3 0 019.4-18.4l4.6 9.3z"/></g>
		<g id="actCross"><path d="M.7.6l-.7.7 5.3 5.3 5.3 5.4s-2.3 2.5-5.3 5.4L0 22.7l.7.7.6.6 1.8-1.8L8.5 17l3.5-3.5 1.9 1.8 5.3 5.3 3.5 3.5.7-.6.6-.7A261.7 261.7 0 0013.4 12 239.6 239.6 0 0124 1.3l-.6-.7-.7-.6L21 2l-5.4 5.3-3.5 3.5L8.5 7 3 1.8 1.3 0 .7.6z"/></g>
		<g id="actSquare"><path d="M0 12v12h24V0H0v12zm22.2 0v10.3H1.8V1.7h20.4V12z"/></g>
		<g id="actCircle"><path d="M10.36.07a12.26 12.26 0 00-9.63 7.7c-.97 2.5-.97 5.94 0 8.45a12.13 12.13 0 0011.96 7.76c4.59-.25 8.76-3.2 10.49-7.4a9.7 9.7 0 00.82-4.59 9.7 9.7 0 00-.82-4.58 12.25 12.25 0 00-8.3-7.08c-1.2-.3-3.4-.42-4.52-.26zm3.31 1.73c3.97.67 7.05 3.4 8.3 7.32.27.88.29 1.06.29 2.87s-.02 2-.3 2.88c-2.08 6.6-9.44 9.47-15.3 5.95-1-.6-2.4-1.92-3.06-2.86A10.32 10.32 0 0113.67 1.8z"/></g>
		<g id="arrUp"><path d="M6 12L0 24h24l-6-12-6-12-6 12zm10.7 1l4.6 9.2a283.4 283.4 0 01-18.6 0 889.3 889.3 0 019.4-18.4l4.6 9.3z"/></g>
		<g id="arrRight"><path d="M12 6L0 0v24l12-6 12-6-12-6zm-1 10.7l-9.2 4.6a283.6 283.6 0 010-18.6 889.3 889.3 0 0118.4 9.4l-9.3 4.6z"/></g>
		<g id="arrLeft"><path d="M12 18l12 6V0L12 6 0 12l12 6zm1-10.7l9.2-4.6a283.4 283.4 0 010 18.6 888.5 888.5 0 01-18.4-9.4l9.3-4.6z"/></g>
		<g id="arrDown"><path d="M18 12l6-12H0l6 12 6 12 6-12zM7.4 11L2.7 1.7a283.6 283.6 0 0118.6 0 888.5 888.5 0 01-9.4 18.4l-4.6-9.3z"/></g>
		<g id="save"><path d="M15 9H5V5h10m-3 14a3 3 0 01-3-3 3 3 0 013-3 3 3 0 013 3 3 3 0 01-3 3m5-16H5a2 2 0 00-2 2v14a2 2 0 002 2h14a2 2 0 002-2V7l-4-4z"/></g>
		<g id="load"><path d="M14 13v4h-4v-4H7l5-5 5 5m2.4-3a7.5 7.5 0 00-14-2A6 6 0 000 14a6 6 0 006 6h13a5 5 0 005-5 5 5 0 00-4.6-5z"/></g>
	</defs>
</svg>