<svg width="146" height="146" fill="none" xmlns="http://www.w3.org/2000/svg"><path d="M91.3 86.4a4.7 4.7 0 110 9.4 4.7 4.7 0 010-9.4zm8.3-8.3a4.7 4.7 0 110 9.4 4.7 4.7 0 010-9.4zm0 16.5a4.7 4.7 0 110 9.4 4.7 4.7 0 010-9.4zm8.2-8.2a4.7 4.7 0 110 9.4 4.7 4.7 0 010-9.4z" fill="#fff"/><path d="M52.8 29.7c11-11 28-11 39.6 0l6-6a35 35 0 00-51.6 0l6 6zm6.7 6.7l6.1 6.1c4.3-3 9.8-3 14 0l6.1-6c-7.3-7.4-18.3-7.4-26.2 0zM6 60.8v60.8a12.2 12.2 0 0012.2 12.2h109.5a12.2 12.2 0 0012.1-12.2V60.8a12.2 12.2 0 00-12.1-12.2H18.2A12.2 12.2 0 006 60.8zm115.6 0v60.8H24.3V60.8h97.3z" fill="#fff"/><path d="M52 87.2L48 91l4 3.9h7v-7.8h-7zm-9.8 9.7v7.1H50v-7l-4-4-3.8 4zm-2-9.7h-7.1V95h7.1l4-4-4-3.8zm9.8-2v-7.1h-7.8v7.1l3.9 4 3.9-4z" fill="#fff"/></svg>